PathFileType	4	(X/Y/Z)	D:/2025/Ayumi_22_01_2025/22-01-2025/static_00_hjc.trc	
DataRate	CameraRate	NumFrames	NumMarkers	Units	OrigDataRate	OrigDataStartFrame	OrigNumFrames	
200.00	200.00	5	66	mm	200.00	228	352	
Frame#	Time	FHD			LBHD			RBHD			LBAR			RASI			RSACR			LSACR			LASI			USACR			C7			CLAV			T10			RSHO			LSHO			LTHI1			LTHI3			LTHI2			LLFC			LTIB1			LTIB2			LTIB3			LMMAL			LLMAL			LHEE			LMT1			LMT5			LMT3			RTHI1			RTHI2			RTHI3			RLFC			RMFC			RTIB1			RTIB3			RTIB2			RLMAL			RMMAL			RHEE			RMT5			RMT1			RMT3			LMEP			LLEP			LDUPA			LMUPA			LUUPA			LUL			LRAD			LRFIN			RUL			RRAD			RUFIN			RMEP			RLEP			RMUPA			RDUPA			RUUPA			LMFC			RBAR			*59			LAJC			RAJC			LKJC			RKJC			LHJC			RHJC			
		X1	Y1	Z1	X2	Y2	Z2	X3	Y3	Z3	X4	Y4	Z4	X5	Y5	Z5	X6	Y6	Z6	X7	Y7	Z7	X8	Y8	Z8	X9	Y9	Z9	X10	Y10	Z10	X11	Y11	Z11	X12	Y12	Z12	X13	Y13	Z13	X14	Y14	Z14	X15	Y15	Z15	X16	Y16	Z16	X17	Y17	Z17	X18	Y18	Z18	X19	Y19	Z19	X20	Y20	Z20	X21	Y21	Z21	X22	Y22	Z22	X23	Y23	Z23	X24	Y24	Z24	X25	Y25	Z25	X26	Y26	Z26	X27	Y27	Z27	X28	Y28	Z28	X29	Y29	Z29	X30	Y30	Z30	X31	Y31	Z31	X32	Y32	Z32	X33	Y33	Z33	X34	Y34	Z34	X35	Y35	Z35	X36	Y36	Z36	X37	Y37	Z37	X38	Y38	Z38	X39	Y39	Z39	X40	Y40	Z40	X41	Y41	Z41	X42	Y42	Z42	X43	Y43	Z43	X44	Y44	Z44	X45	Y45	Z45	X46	Y46	Z46	X47	Y47	Z47	X48	Y48	Z48	X49	Y49	Z49	X50	Y50	Z50	X51	Y51	Z51	X52	Y52	Z52	X53	Y53	Z53	X54	Y54	Z54	X55	Y55	Z55	X56	Y56	Z56	X57	Y57	Z57	X58	Y58	Z58	X59	Y59	Z59	X60	Y60	Z60	X61	Y61	Z61	X62	Y62	Z62	X63	Y63	Z63	X64	Y64	Z64	X65	Y65	Z65	X66	Y66	Z66	

221	1.100	106.10352	967.04291	1610.80920	124.52029	906.79498	1593.66895	142.89859	1037.77222	1583.27832	1041.04724	2031.62866	20.02340	162.66855	1103.53809	927.23132	322.89502	1015.63275	960.11273	319.63724	942.02740	960.70868	149.12163	866.11627	912.38013	314.77194	979.95007	970.47101	296.38867	963.67993	1401.64673	162.18814	981.03412	1329.05347	319.67145	974.17749	1118.00378	235.53523	1112.49756	1406.77576	214.75526	830.96484	1398.73596	237.26309	808.05493	606.54590	261.80136	819.29547	546.08740	211.19254	818.14233	545.95325	229.87701	841.14294	449.38812	256.67117	819.74072	233.63574	306.89713	815.69788	232.48857	280.08438	825.87958	173.51208	284.30734	914.73352	71.81218	297.86798	843.44135	69.62077	340.99066	881.68805	33.97059	143.84769	873.69019	39.15539	169.43477	796.98871	26.83695	144.83862	837.71002	37.27377	257.66580	1157.00134	608.12134	229.90585	1149.50928	549.40363	281.65579	1147.54626	547.66840	240.33313	1125.71399	455.21439	247.78851	1024.74365	449.56775	271.51059	1160.00281	276.90863	294.39999	1155.66077	215.27133	322.47626	1161.15833	275.28113	307.62411	1134.93958	73.59253	276.84561	1063.99609	75.63647	351.58957	1095.34143	28.43481	178.78485	1179.45361	29.31998	151.09320	1115.54211	37.74857	156.16933	1148.28235	36.02024	263.92801	1374.44275	1278.79004	302.77832	1377.45801	1338.93628	312.26349	1277.56677	1351.60217	308.96677	1217.35168	1363.33032	327.63107	1207.68066	1318.06360	231.57286	326.64548	1333.97473	167.85068	319.38605	1351.33704	178.96950	245.30128	1348.21167	282.04019	1611.60193	1341.16394	221.76363	1612.19885	1357.37085	221.04021	1686.41809	1354.33655	202.46561	580.98230	1278.25110	253.10278	563.43860	1329.63318	252.07758	644.40363	1361.62756	281.86740	640.12811	1322.08435	268.09518	704.26166	1367.79236	242.37352	939.75311	442.16507							291.08766	879.08743	70.71647	292.23486	1099.46783	74.61450	236.12527	890.44803	445.77660	244.06082	1075.22882	452.39107	234.37943	904.07184	936.54440	242.78178	1059.58542	943.67203 
222	1.105	106.10184	967.01459	1610.80676	124.54424	906.75128	1593.64941	142.88300	1037.73694	1583.28796	1041.02222	2031.59290	20.01905	162.65479	1103.56128	927.25641	322.89441	1015.65070	960.03778	319.63843	942.02350	960.71283	149.13348	866.11975	912.35449	314.77527	979.93451	970.49866	296.38242	963.65472	1401.64709	162.19667	981.00055	1329.07861	319.68027	974.16528	1117.99219	235.52875	1112.48132	1406.79285	214.76759	830.92725	1398.72986	237.24159	808.06464	606.52527	261.79135	819.30463	546.09863	211.15932	818.39362	545.86584	229.88544	841.13348	449.36978	256.65042	819.75122	233.64326	306.90399	815.68793	232.48822	280.06110	825.87750	173.52141	284.30353	914.73474	71.80885	297.87228	843.43250	69.61968	341.00464	881.73456	33.96955	143.85858	873.69598	39.15574	169.42398	796.96710	26.86796	144.84424	837.70721	37.26786	257.69992	1157.00024	608.12628	229.89989	1149.53320	549.39612	281.65866	1147.52332	547.67072	240.34003	1125.72632	455.20477	247.80780	1024.71741	449.55389	271.51755	1160.00366	276.92880	294.40533	1155.65222	215.27904	322.44818	1161.13696	275.27396	307.61606	1134.93921	73.60153	276.85950	1063.99683	75.63054	351.59399	1095.33337	28.46612	178.78749	1179.44470	29.33214	151.09720	1115.54199	37.72879	156.16232	1148.26196	36.02079	263.95670	1374.42090	1278.81921	302.78015	1377.44507	1338.96228	312.28137	1277.56787	1351.57434	308.97507	1217.32275	1363.34644	327.62827	1207.65979	1318.09058	231.56465	326.62381	1333.96863	167.84213	319.36545	1351.33276	178.96080	245.29250	1348.23596	282.06589	1611.59277	1341.15027	221.68291	1612.63318	1357.48022	221.05742	1686.41467	1354.35071	202.18649	581.22314	1278.49634	253.11824	563.42529	1329.60107	252.08134	644.39575	1361.60461	281.86935	640.11536	1322.08057	268.10345	704.22900	1367.81799	242.39426	939.73834	442.13644							291.08791	879.08362	70.71426	292.23778	1099.46802	74.61604	236.13985	890.43591	445.75311	244.07391	1075.22186	452.37933	234.38596	904.07162	936.53366	242.77460	1059.60599	943.64709 
223	1.110	106.13035	966.96576	1610.80505	124.56332	906.72064	1593.60461	142.88609	1037.69336	1583.28796	1040.99927	2031.59009	20.05789	162.65715	1103.55969	927.24036	322.90216	1015.62561	960.08893	319.61404	942.00397	960.75262	149.12509	866.11505	912.35913	314.78119	979.92474	970.49329	296.38394	963.64368	1401.65771	162.18913	980.97198	1329.09583	319.68771	974.16547	1117.98938	235.51955	1112.45605	1406.80371	214.73807	830.91473	1398.73694	237.24942	808.05511	606.52527	261.79642	819.29944	546.07678	211.16591	818.39349	545.86212	229.88498	841.12860	449.37366	256.64743	819.75909	233.63063	306.88943	815.69110	232.49840	280.07452	825.86621	173.50723	284.30780	914.73169	71.80186	297.87802	843.43628	69.61592	340.99792	881.71558	33.95714	143.86990	873.68982	39.17695	169.42761	796.98853	26.84081	144.85103	837.73218	37.25143	257.74927	1157.00208	608.05548	229.93356	1149.52917	549.36108	281.65906	1147.53027	547.68781	240.33438	1125.73083	455.21371	247.82094	1024.71509	449.53757	271.52240	1159.99146	276.91678	294.42490	1155.65210	215.25739	322.45145	1161.15747	275.30826	307.61685	1134.95007	73.57345	276.86465	1064.00330	75.63400	351.60864	1095.33643	28.41622	178.76863	1179.44336	29.33255	151.10031	1115.55249	37.71567	156.16821	1148.28125	36.00280	263.96249	1374.39966	1278.83423	302.79330	1377.41785	1338.97144	312.28479	1277.55627	1351.58191	308.96896	1217.28931	1363.37415	327.64246	1207.64087	1318.09619	231.57137	326.61905	1333.97571	167.82413	319.36133	1351.35022	179.00282	245.25928	1348.24438	282.06891	1611.55933	1341.19250	221.68488	1612.61133	1357.51270	221.05359	1686.39819	1354.38562	202.19458	581.20612	1278.47937	253.12129	563.40430	1329.60828	252.08266	644.38074	1361.60742	281.87933	640.09290	1322.07861	268.09827	704.23230	1367.79663	242.40492	939.72772	442.12115							291.09291	879.08398	70.70889	292.24075	1099.47668	74.60372	236.14495	890.42816	445.74741	244.07766	1075.22296	452.37564	234.36957	904.05951	936.55588	242.77966	1059.59265	943.66464 
224	1.115	106.13370	966.96448	1610.77734	124.58342	906.67383	1593.61902	142.87996	1037.66394	1583.29590	1041.03479	2031.61194	20.03476	162.68893	1103.55310	927.23755	322.92065	1015.60321	960.09021	319.64261	942.00024	960.70953	149.14789	866.10352	912.33002	314.78864	979.91473	970.48840	296.40176	963.62061	1401.64087	162.19534	980.99280	1329.05957	319.68335	974.14526	1118.00513	235.53584	1112.43250	1406.80457	214.71361	830.89111	1398.74133	237.24564	808.03967	606.52960	261.78152	819.29510	546.08130	211.14781	818.38348	545.85693	229.86830	841.13275	449.37418	256.64221	819.74902	233.65738	306.86377	815.70691	232.51740	280.07361	825.85834	173.50781	284.28607	914.73688	71.80974	297.88058	843.43597	69.61927	340.98154	881.67413	33.97309	143.87051	873.69061	39.16402	169.43263	796.98999	26.82951	144.85242	837.72308	37.24511	257.75470	1156.98608	608.06628	230.00032	1149.52527	549.31195	281.66388	1147.52258	547.68915	240.35484	1125.72961	455.21375	247.79910	1024.72913	449.55127	271.54507	1159.99316	276.89911	294.40033	1155.68726	215.26523	322.44846	1161.17749	275.33130	307.61737	1134.93665	73.59384	276.83325	1063.99548	75.64808	351.59927	1095.34229	28.43515	178.78212	1179.44092	29.31934	151.10324	1115.53149	37.71416	156.16701	1148.27881	36.01629	263.99158	1374.37476	1278.84753	302.79065	1377.40295	1339.00720	312.29892	1277.53589	1351.58862	308.96936	1217.27075	1363.38342	327.64737	1207.61963	1318.11035	231.56316	326.59705	1333.98560	167.79665	319.35312	1351.38513	179.00578	245.23959	1348.26880	282.06851	1611.51453	1341.25818	221.69225	1612.59619	1357.52832	221.05878	1686.38281	1354.38989	202.48424	580.94135	1278.25842	253.09264	563.39270	1329.62085	252.08932	644.35980	1361.63428	281.88605	640.08398	1322.08813	268.10800	704.21155	1367.82031	242.40034	939.73761	442.12949							291.08333	879.08643	70.71450	292.22531	1099.46606	74.62096	236.13432	890.43518	445.75183	244.07697	1075.22937	452.38251	234.39525	904.05188	936.51978	242.80479	1059.57816	943.66388 
225	1.120	106.14645	966.94983	1610.74548	124.55855	906.65112	1593.61023	142.85760	1037.62744	1583.30676	1041.01367	2031.62634	20.02568	162.68039	1103.55176	927.27802	322.92715	1015.59338	960.08899	319.65747	941.99164	960.69873	149.13982	866.10107	912.36377	314.80157	979.91217	970.46155	296.40454	963.59802	1401.65759	162.19374	980.97119	1329.06921	319.69699	974.13269	1118.01709	235.52545	1112.40979	1406.82056	214.71136	830.86481	1398.74316	237.24158	808.04254	606.52307	261.78693	819.29309	546.09601	211.11989	818.34204	545.89197	229.88020	841.12250	449.37686	256.63251	819.76404	233.63235	306.88806	815.70050	232.48878	280.08640	825.86340	173.49791	284.29269	914.72534	71.80634	297.87433	843.43073	69.62051	341.00211	881.71912	33.96201	143.85239	873.68024	39.15789	169.43243	796.99103	26.81915	144.84561	837.71906	37.24133	257.75668	1156.96863	608.10608	230.00366	1149.54126	549.33337	281.64059	1147.51953	547.73322	240.35838	1125.73315	455.19766	247.82651	1024.71594	449.54190	271.55975	1159.98413	276.89706	294.39850	1155.69250	215.27737	322.25543	1160.85962	275.05670	307.61258	1134.94470	73.59505	276.83304	1063.99060	75.62901	351.60980	1095.33337	28.40990	178.78011	1179.42712	29.33032	151.10866	1115.53845	37.70210	156.16853	1148.28992	36.00283	263.99054	1374.35449	1278.84790	302.79709	1377.38660	1339.02075	312.30841	1277.50879	1351.62134	308.98608	1217.26721	1363.35461	327.66064	1207.59351	1318.11292	231.56006	326.57693	1334.02100	167.80568	319.31747	1351.35425	179.08569	245.06686	1348.44885	282.07101	1611.49585	1341.27844	221.69867	1612.56702	1357.54858	221.06340	1686.35571	1354.43970	202.50198	580.92444	1278.25610	253.09285	563.37177	1329.64392	252.07697	644.34418	1361.63074	281.89215	640.06458	1322.09033	268.10339	704.18842	1367.81799	242.39255	939.73535	442.13773							291.08351	879.07803	70.71343	292.22281	1099.46765	74.61203	236.13638	890.42892	445.75729	244.09245	1075.22455	452.36978	234.39864	904.04636	936.53125	242.80377	1059.57257	943.68350 
